<?xml version="1.0" encoding="utf-8"?>
<!-- Generator: Adobe Illustrator 16.0.0, SVG Export Plug-In . SVG Version: 6.00 Build 0)  -->
<!DOCTYPE svg PUBLIC "-//W3C//DTD SVG 1.1//EN" "http://www.w3.org/Graphics/SVG/1.1/DTD/svg11.dtd">
<svg version="1.1" id="Layer_1" xmlns="http://www.w3.org/2000/svg" xmlns:xlink="http://www.w3.org/1999/xlink" x="0px" y="0px"
	 width="841.89px" height="595.28px" viewBox="0 0 841.89 595.28" enable-background="new 0 0 841.89 595.28" xml:space="preserve">
<path fill="#B58863" d="M538.73,273.215c0-18.85-11.445-35.737-28.713-42.832c-0.029-14.854-7.26-28.893-19.354-37.57
	c-1.451-1.035-2.975-1.998-4.572-2.876v-0.063l-1.969-0.979h-0.016l-5.133-2.157l0,0c-4.889-1.717-10.008-2.595-15.283-2.595H424.51
	h-7.131h-39.188c-5.27,0-10.389,0.878-15.276,2.595l0,0l-5.126,2.15c-0.008,0.007-0.008,0.007-0.008,0.007l-1.99,0.979v0.063
	c-1.582,0.878-3.113,1.841-4.558,2.876c-12.1,8.678-19.333,22.717-19.354,37.57c-17.282,7.095-28.721,23.982-28.721,42.832
	c0,8.699,2.409,17.096,6.98,24.429c-4.571,7.333-6.98,15.723-6.98,24.436c0,13.96,6.29,26.931,16.708,35.6
	c3.285,2.732,6.98,5.047,11.028,6.814c0,0,0.006,0,0.014,0l0.683,0.303h0.021c0.087,0.042,0.173,0.087,0.26,0.114
	c0.027,14.854,7.261,28.887,19.36,37.556c1.444,1.051,2.976,2,4.558,2.876v0.072l1.99,0.978l5.134,2.156l0,0
	c4.888,1.726,10.007,2.59,15.276,2.59h39.188h7.131h39.182c5.275,0,10.395-0.864,15.283-2.59l0,0l5.133-2.156h0.016l1.969-0.978
	v-0.072c1.598-0.876,3.121-1.825,4.572-2.876c12.094-8.669,19.324-22.702,19.354-37.556c0.086-0.027,0.172-0.072,0.258-0.114h0.029
	l0.676-0.303l0,0l0,0c4.055-1.768,7.75-4.082,11.041-6.814c10.412-8.669,16.709-21.64,16.709-35.6
	c0-8.713-2.416-17.103-6.988-24.436C536.314,290.311,538.73,281.914,538.73,273.215z M362.915,301.21h54.464v56.469h-54.464V301.21z
	 M424.51,294.077V236.37h54.465v57.707H424.51z M486.092,229.247v-30.935c0.145,0.1,0.273,0.193,0.418,0.287
	c9.92,7.125,15.973,18.504,16.361,30.647H486.092z M417.379,229.247h-54.464v-34.875c4.838-2.056,9.964-3.105,15.276-3.105h39.188
	V229.247z M336.121,236.37h19.67v57.707h-39.482c-3.947-6.247-6.024-13.422-6.024-20.862
	C310.284,256.708,320.644,241.979,336.121,236.37z M339.004,364.796h16.787v32.179c-0.138-0.101-0.274-0.188-0.41-0.288
	c-10.252-7.361-16.377-19.267-16.377-31.861C339.004,364.825,339.004,364.811,339.004,364.796z M424.51,364.796h54.465v36.117
	c-4.83,2.058-9.965,3.105-15.283,3.105H424.51V364.796z M486.092,357.679V301.21h39.496c3.939,6.246,6.01,13.422,6.01,20.869
	c0,15.313-8.928,29.201-22.803,35.6H486.092z"/>
</svg>
