<?xml version="1.0" encoding="utf-8"?>
<!-- Generator: Adobe Illustrator 16.0.0, SVG Export Plug-In . SVG Version: 6.00 Build 0)  -->
<!DOCTYPE svg PUBLIC "-//W3C//DTD SVG 1.1//EN" "http://www.w3.org/Graphics/SVG/1.1/DTD/svg11.dtd">
<svg version="1.1" id="Layer_1" xmlns="http://www.w3.org/2000/svg" xmlns:xlink="http://www.w3.org/1999/xlink" x="0px" y="0px"
	 width="279.105px" height="268.948px" viewBox="0 0 279.105 268.948" enable-background="new 0 0 279.105 268.948"
	 xml:space="preserve">
<path fill="#B58863" d="M279.105,105.529c0-22.334-13.552-42.342-34.026-50.748c-0.03-17.596-8.596-34.229-22.927-44.511
	c-1.715-1.229-3.526-2.366-5.405-3.406V6.787l-2.344-1.154c-0.003-0.002-0.008-0.005-0.012-0.006l-6.088-2.552l0,0
	C202.515,1.038,196.451,0,190.206,0h-46.432h-8.443H88.898c-6.244,0-12.306,1.038-18.098,3.074l0,0l-6.079,2.548
	c-0.003,0.002-0.005,0.004-0.008,0.005l-2.355,1.16v0.078c-1.877,1.039-3.691,2.175-5.403,3.405
	C42.622,20.551,34.057,37.186,34.026,54.782C13.554,63.188,0,83.195,0,105.529c0,10.311,2.857,20.254,8.272,28.945
	C2.857,143.165,0,153.109,0,163.419c0,16.554,7.455,31.915,19.794,42.181c3.896,3.24,8.275,5.979,13.066,8.08
	c0.004,0.002,0.009,0.005,0.014,0.007l0.811,0.354h0.025c0.104,0.044,0.21,0.09,0.313,0.133
	c0.033,17.597,8.601,34.227,22.932,44.504c1.712,1.23,3.526,2.367,5.403,3.406v0.078l2.355,1.16l6.087,2.553l0,0
	c5.792,2.037,11.854,3.073,18.098,3.073h46.433h8.443h46.432c6.245,0,12.309-1.036,18.098-3.073l0,0l6.088-2.553
	c0.004-0.002,0.009-0.004,0.012-0.006l2.344-1.153v-0.079c1.879-1.039,3.69-2.176,5.405-3.406
	c14.331-10.281,22.898-26.911,22.929-44.504c0.106-0.043,0.21-0.089,0.316-0.133h0.023l0.811-0.354l0.002-0.001c0,0,0,0,0.002-0.001
	c4.797-2.102,9.178-4.843,13.078-8.085c12.339-10.266,19.792-25.627,19.792-42.181c0-10.31-2.855-20.254-8.271-28.945
	C276.25,125.783,279.105,115.839,279.105,105.529z M70.801,138.695h64.53V205.6h-64.53V138.695z M143.774,130.253V61.878h64.529
	v68.375H143.774z M216.747,53.436V16.788c0.162,0.113,0.324,0.227,0.484,0.343c11.762,8.435,18.937,21.923,19.387,36.305H216.747z
	 M135.331,53.436h-64.53V12.119c5.729-2.441,11.804-3.677,18.098-3.677h46.433V53.436z M39.051,61.878h23.308v68.375H15.579
	c-4.676-7.406-7.137-15.908-7.137-24.724C8.442,85.977,20.715,68.523,39.051,61.878z M42.466,214.041h19.893v38.119
	c-0.162-0.113-0.322-0.228-0.482-0.342c-12.152-8.717-19.41-22.826-19.41-37.745C42.466,214.063,42.466,214.052,42.466,214.041z
	 M143.774,214.041h64.529v42.79c-5.726,2.44-11.803,3.675-18.098,3.675h-46.432V214.041z M216.747,205.6v-66.904h46.781
	c4.676,7.406,7.135,15.909,7.135,24.724c0,18.146-10.581,34.606-27.03,42.181H216.747z"/>
</svg>
