<?xml version="1.0" encoding="UTF-8" standalone="no"?>
<!DOCTYPE svg PUBLIC "-//W3C//DTD SVG 1.1//EN" "http://www.w3.org/Graphics/SVG/1.1/DTD/svg11.dtd">
<svg version="1.1" xmlns="http://www.w3.org/2000/svg" xmlns:xlink="http://www.w3.org/1999/xlink" preserveAspectRatio="xMidYMid meet" viewBox="0 0 648 184" width="648" height="184"><defs><path d="M0 0L650 0L650 184.85L0 184.85L0 0Z" id="bpvgGx3y7"></path><path d="M0 145.56L647.98 145.56L647.98 184.85L0 184.85L0 145.56Z" id="a40gE3i7Rb"></path><path d="M212.62 35.3L213.14 35.41L213.65 35.55L214.14 35.74L214.6 35.96L215.05 36.21L215.48 36.5L215.88 36.82L216.26 37.17L216.61 37.55L216.93 37.95L217.21 38.38L217.47 38.82L217.69 39.29L217.88 39.78L218.02 40.29L218.13 40.81L218.19 41.35L218.22 41.9L218.22 46.81L224.04 46.81L224.51 46.84L224.96 46.91L225.39 47.03L225.81 47.19L226.2 47.4L226.57 47.64L226.91 47.92L227.22 48.23L227.5 48.57L227.74 48.93L227.95 49.33L228.11 49.74L228.23 50.18L228.3 50.63L228.33 51.1L228.33 52.46L228.3 52.93L228.23 53.38L228.11 53.82L227.95 54.24L227.74 54.63L227.5 55L227.22 55.34L226.91 55.65L226.57 55.93L226.2 56.17L225.81 56.37L225.39 56.53L224.96 56.65L224.51 56.73L224.04 56.75L218.22 56.75L218.22 71.42L225.88 71.42L226.5 71.44L227.1 71.51L227.69 71.63L228.25 71.78L228.79 71.98L229.32 72.22L229.82 72.5L230.29 72.81L230.74 73.15L231.16 73.52L231.55 73.92L231.91 74.35L232.24 74.81L232.53 75.28L232.79 75.78L233.02 76.29L233.2 76.83L233.35 77.37L233.45 77.93L233.52 78.5L233.54 79.08L233.51 79.67L233.44 80.26L233.32 80.85L233.15 81.44L227.02 100.14L226.91 100.45L226.79 100.75L226.65 101.05L226.49 101.33L226.33 101.61L226.15 101.87L225.95 102.13L225.75 102.37L225.53 102.61L225.31 102.83L225.07 103.04L224.82 103.24L224.61 103.39L224.61 119.34L226.56 120.59L227.02 120.9L227.47 121.22L227.91 121.55L228.33 121.9L228.74 122.26L229.14 122.63L229.52 123.02L229.89 123.41L230.25 123.82L230.6 124.24L230.93 124.66L231.24 125.1L231.54 125.55L231.83 126.01L232.1 126.47L232.36 126.95L232.6 127.43L232.83 127.93L233.04 128.42L233.24 128.93L233.41 129.44L233.58 129.96L233.72 130.49L233.85 131.02L233.96 131.56L234.06 132.1L234.13 132.65L235.72 145.56L187.55 145.56L187.55 135.19L187.56 134.64L187.58 134.1L187.63 133.55L187.69 133.01L187.78 132.47L187.88 131.94L188 131.41L188.13 130.89L188.28 130.37L188.45 129.86L188.64 129.36L188.84 128.86L189.06 128.37L189.3 127.89L189.55 127.41L189.82 126.95L190.1 126.49L190.4 126.04L190.71 125.6L191.04 125.18L191.38 124.76L191.74 124.35L192.11 123.96L192.5 123.57L192.9 123.2L193.32 122.84L193.74 122.5L198.66 118.66L198.66 102.48L198.55 102.36L198.35 102.12L198.16 101.86L197.98 101.59L197.82 101.32L197.67 101.03L197.53 100.74L197.41 100.43L197.3 100.12L191.64 82.14L191.46 81.5L191.34 80.86L191.27 80.23L191.25 79.6L191.28 78.98L191.35 78.37L191.47 77.77L191.63 77.19L191.84 76.62L192.08 76.07L192.36 75.54L192.68 75.03L193.04 74.54L193.43 74.09L193.85 73.66L194.3 73.26L194.78 72.9L195.29 72.57L195.83 72.27L196.39 72.02L196.97 71.81L197.57 71.64L198.2 71.52L198.84 71.44L199.5 71.42L204.85 71.42L204.85 56.75L199.03 56.75L198.56 56.73L198.11 56.65L197.67 56.53L197.26 56.37L196.87 56.17L196.5 55.93L196.16 55.65L195.85 55.34L195.57 55L195.33 54.63L195.12 54.24L194.96 53.82L194.84 53.38L194.77 52.93L194.74 52.46L194.74 51.1L194.77 50.63L194.84 50.18L194.96 49.74L195.12 49.33L195.33 48.93L195.57 48.57L195.85 48.23L196.16 47.92L196.5 47.64L196.87 47.4L197.26 47.19L197.67 47.03L198.11 46.91L198.56 46.84L199.03 46.81L204.85 46.81L204.85 41.9L204.88 41.35L204.94 40.81L205.05 40.29L205.19 39.78L205.38 39.29L205.6 38.82L205.85 38.38L206.14 37.95L206.46 37.55L206.81 37.17L207.19 36.82L207.59 36.5L208.02 36.21L208.46 35.96L208.93 35.74L209.42 35.55L209.93 35.41L210.45 35.3L210.99 35.24L211.53 35.21L212.08 35.24L212.62 35.3Z" id="e2ss6aMWA9"></path><path d="M108.2 82.66L108.13 83.11L108.03 83.56L107.91 83.99L107.76 84.41L107.59 84.82L107.39 85.22L107.17 85.6L106.93 85.97L106.67 86.32L106.39 86.66L106.09 86.98L105.77 87.28L105.43 87.56L105.08 87.82L104.71 88.06L104.33 88.28L103.93 88.48L103.52 88.65L103.1 88.8L102.67 88.92L102.22 89.02L101.77 89.09L101.31 89.13L100.84 89.15L97.7 89.15L97.7 124.87L100.67 124.87L101.21 124.89L101.75 124.93L102.27 125L102.79 125.1L103.3 125.22L103.8 125.36L104.29 125.53L104.76 125.73L105.22 125.94L105.67 126.18L106.11 126.44L106.53 126.72L106.94 127.03L107.33 127.35L107.7 127.69L108.06 128.04L108.4 128.42L108.72 128.81L109.02 129.22L109.3 129.64L109.56 130.07L109.8 130.52L110.02 130.99L110.21 131.46L110.39 131.95L110.53 132.45L110.65 132.96L110.75 133.47L110.82 134L110.86 134.53L110.87 135.08L110.87 145.56L48.35 145.56L48.35 135.08L48.37 134.53L48.41 134L48.48 133.47L48.57 132.96L48.69 132.45L48.84 131.95L49.01 131.46L49.21 130.99L49.42 130.52L49.66 130.07L49.92 129.64L50.2 129.22L50.5 128.81L50.82 128.42L51.16 128.04L51.52 127.69L51.9 127.35L52.29 127.03L52.69 126.72L53.12 126.44L53.55 126.18L54 125.94L54.47 125.73L54.94 125.53L55.43 125.36L55.93 125.22L56.43 125.1L56.95 125L57.48 124.93L58.01 124.89L58.55 124.87L61.53 124.87L61.53 89.15L59.11 89.15L58.64 89.13L58.18 89.09L57.73 89.02L57.28 88.92L56.85 88.8L56.43 88.65L56.02 88.48L55.62 88.28L55.24 88.06L54.87 87.82L54.52 87.56L54.18 87.28L53.86 86.98L53.56 86.66L53.28 86.32L53.02 85.97L52.78 85.6L52.56 85.22L52.36 84.82L52.19 84.41L52.04 83.99L51.92 83.56L51.82 83.11L51.75 82.66L51.71 82.2L51.69 81.73L51.69 60.95L65.6 60.95L65.6 74.11L73.02 74.11L73.02 60.95L86.93 60.95L86.93 74.11L94.35 74.11L94.35 60.95L108.26 60.95L108.26 81.73L108.24 82.2L108.2 82.66Z" id="a24zulCUOy"></path><path d="M411.61 80.1L412.94 80.34L414.24 80.65L415.5 81.03L416.71 81.48L417.87 82L418.97 82.58L420.02 83.23L421 83.94L421.92 84.7L422.77 85.53L423.54 86.4L424.23 87.33L424.83 88.3L425.35 89.32L425.78 90.39L426.11 91.49L426.33 92.63L426.46 93.79L426.47 94.95L426.38 96.09L426.18 97.21L425.89 98.32L425.51 99.41L425.03 100.48L424.47 101.51L423.82 102.52L423.09 103.48L422.28 104.41L421.39 105.3L420.44 106.14L419.82 106.62L419.89 106.7L420.46 107.46L420.99 108.25L421.46 109.07L421.87 109.93L422.23 110.82L422.53 111.74L422.77 112.68L422.94 113.65L423.04 114.64L423.08 115.65L423.08 125.63L423.04 126.64L423 127.02L426.6 127.02L427.14 127.04L427.68 127.09L428.2 127.16L428.72 127.27L429.23 127.4L429.72 127.56L430.2 127.75L430.67 127.97L431.13 128.2L431.56 128.47L431.99 128.75L432.39 129.06L432.78 129.39L433.15 129.74L433.5 130.11L433.83 130.5L434.13 130.9L434.42 131.32L434.68 131.76L434.92 132.22L435.13 132.68L435.32 133.17L435.48 133.66L435.62 134.17L435.72 134.68L435.8 135.21L435.85 135.75L435.86 136.29L435.86 145.56L379.06 145.56L379.06 136.29L379.08 135.75L379.13 135.21L379.2 134.68L379.31 134.17L379.44 133.66L379.6 133.17L379.79 132.68L380.01 132.22L380.24 131.76L380.51 131.32L380.79 130.9L381.1 130.5L381.43 130.11L381.78 129.74L382.15 129.39L382.53 129.06L382.94 128.75L383.36 128.47L383.8 128.2L384.25 127.97L384.72 127.75L385.2 127.56L385.7 127.4L386.21 127.27L386.72 127.16L387.25 127.09L387.79 127.04L388.33 127.02L390.7 127.02L390.66 126.64L390.62 125.63L390.62 115.65L390.66 114.64L390.76 113.65L390.93 112.68L391.17 111.74L391.47 110.82L391.83 109.93L392.24 109.07L392.72 108.25L393.17 107.57L392.7 107.23L391.78 106.46L390.93 105.64L390.16 104.76L389.47 103.84L388.87 102.86L388.35 101.84L387.92 100.78L387.59 99.68L387.37 98.53L387.25 97.37L387.23 96.22L387.32 95.08L387.52 93.95L387.81 92.84L388.19 91.75L388.67 90.69L389.24 89.65L389.88 88.65L390.62 87.68L391.42 86.75L392.31 85.87L393.26 85.03L394.28 84.24L395.37 83.5L396.52 82.82L397.73 82.2L398.99 81.65L400.3 81.16L401.66 80.75L403.07 80.41L404.51 80.14L405.97 79.97L407.42 79.88L408.84 79.87L410.24 79.95L411.61 80.1Z" id="bGhLpyO1R"></path><path d="M288.73 80.1L290.07 80.34L291.37 80.65L292.62 81.03L293.83 81.48L294.99 82L296.1 82.58L297.15 83.23L298.13 83.94L299.05 84.7L299.9 85.53L300.67 86.4L301.36 87.33L301.96 88.3L302.48 89.32L302.91 90.39L303.23 91.49L303.46 92.63L303.58 93.79L303.6 94.95L303.51 96.09L303.31 97.21L303.02 98.32L302.64 99.41L302.16 100.48L301.59 101.51L300.95 102.52L300.21 103.48L299.41 104.41L298.52 105.3L297.57 106.14L296.94 106.62L297.02 106.7L297.59 107.46L298.11 108.25L298.58 109.07L299 109.93L299.36 110.82L299.66 111.74L299.89 112.68L300.07 113.65L300.17 114.64L300.21 115.65L300.21 125.63L300.17 126.64L300.13 127.02L303.72 127.02L304.27 127.04L304.81 127.09L305.33 127.16L305.85 127.27L306.36 127.4L306.85 127.56L307.33 127.75L307.8 127.97L308.25 128.2L308.69 128.47L309.11 128.75L309.52 129.06L309.91 129.39L310.28 129.74L310.63 130.11L310.96 130.5L311.26 130.9L311.55 131.32L311.81 131.76L312.05 132.22L312.26 132.68L312.45 133.17L312.61 133.66L312.75 134.17L312.85 134.68L312.93 135.21L312.98 135.75L312.99 136.29L312.99 145.56L256.19 145.56L256.19 136.29L256.21 135.75L256.25 135.21L256.33 134.68L256.44 134.17L256.57 133.66L256.73 133.17L256.92 132.68L257.13 132.22L257.37 131.76L257.63 131.32L257.92 130.9L258.23 130.5L258.56 130.11L258.91 129.74L259.27 129.39L259.66 129.06L260.07 128.75L260.49 128.47L260.93 128.2L261.38 127.97L261.85 127.75L262.33 127.56L262.83 127.4L263.33 127.27L263.85 127.16L264.38 127.09L264.91 127.04L265.46 127.02L267.83 127.02L267.79 126.64L267.75 125.63L267.75 115.65L267.79 114.64L267.89 113.65L268.06 112.68L268.3 111.74L268.6 110.82L268.96 109.93L269.37 109.07L269.84 108.25L270.3 107.57L269.83 107.23L268.91 106.46L268.06 105.64L267.29 104.76L266.6 103.84L266 102.86L265.48 101.84L265.05 100.78L264.72 99.68L264.5 98.53L264.37 97.37L264.36 96.22L264.45 95.08L264.65 93.95L264.94 92.84L265.32 91.75L265.8 90.69L266.36 89.65L267.01 88.65L267.74 87.68L268.55 86.75L269.43 85.87L270.39 85.03L271.41 84.24L272.5 83.5L273.65 82.82L274.85 82.2L276.12 81.65L277.43 81.16L278.79 80.75L280.19 80.41L281.64 80.14L283.1 79.97L284.54 79.88L285.97 79.87L287.36 79.95L288.73 80.1Z" id="i5G99dJNao"></path><path d="M354.81 80.1L356.14 80.34L357.44 80.65L358.7 81.03L359.91 81.48L361.07 82L362.17 82.58L363.22 83.23L364.2 83.94L365.12 84.7L365.97 85.53L366.74 86.4L367.43 87.33L368.03 88.3L368.55 89.32L368.98 90.39L369.31 91.49L369.54 92.63L369.66 93.79L369.67 94.95L369.58 96.09L369.38 97.21L369.09 98.32L368.71 99.41L368.23 100.48L367.67 101.51L367.02 102.52L366.29 103.48L365.48 104.41L364.6 105.3L363.64 106.14L363.02 106.62L363.09 106.7L363.66 107.46L364.19 108.25L364.66 109.07L365.07 109.93L365.43 110.82L365.73 111.74L365.97 112.68L366.14 113.65L366.24 114.64L366.28 115.65L366.28 125.63L366.24 126.64L366.2 127.02L369.8 127.02L370.34 127.04L370.88 127.09L371.4 127.16L371.92 127.27L372.43 127.4L372.92 127.56L373.4 127.75L373.87 127.97L374.33 128.2L374.76 128.47L375.19 128.75L375.59 129.06L375.98 129.39L376.35 129.74L376.7 130.11L377.03 130.5L377.34 130.9L377.62 131.32L377.88 131.76L378.12 132.22L378.34 132.68L378.52 133.17L378.68 133.66L378.82 134.17L378.92 134.68L379 135.21L379.05 135.75L379.06 136.29L379.06 145.56L322.26 145.56L322.26 136.29L322.28 135.75L322.33 135.21L322.4 134.68L322.51 134.17L322.64 133.66L322.8 133.17L322.99 132.68L323.21 132.22L323.44 131.76L323.71 131.32L323.99 130.9L324.3 130.5L324.63 130.11L324.98 129.74L325.35 129.39L325.74 129.06L326.14 128.75L326.56 128.47L327 128.2L327.46 127.97L327.92 127.75L328.41 127.56L328.9 127.4L329.41 127.27L329.92 127.16L330.45 127.09L330.99 127.04L331.53 127.02L333.9 127.02L333.86 126.64L333.82 125.63L333.82 115.65L333.86 114.64L333.96 113.65L334.14 112.68L334.37 111.74L334.67 110.82L335.03 109.93L335.45 109.07L335.92 108.25L336.37 107.57L335.9 107.23L334.98 106.46L334.14 105.64L333.37 104.76L332.67 103.84L332.07 102.86L331.55 101.84L331.12 100.78L330.8 99.68L330.57 98.53L330.45 97.37L330.43 96.22L330.53 95.08L330.72 93.95L331.01 92.84L331.39 91.75L331.87 90.69L332.44 89.65L333.09 88.65L333.82 87.68L334.62 86.75L335.51 85.87L336.46 85.03L337.48 84.24L338.57 83.5L339.72 82.82L340.93 82.2L342.19 81.65L343.5 81.16L344.86 80.75L346.27 80.41L347.71 80.14L349.17 79.97L350.62 79.88L352.04 79.87L353.44 79.95L354.81 80.1Z" id="b2xkc4d2kN"></path><path d="M306.7 80.1L308.04 80.34L309.33 80.65L310.59 81.03L311.8 81.48L312.96 82L314.07 82.58L315.11 83.23L316.1 83.94L317.02 84.7L317.86 85.53L318.63 86.4L319.32 87.33L319.93 88.3L320.45 89.32L320.87 90.39L321.2 91.49L321.43 92.63L321.55 93.79L321.56 94.95L321.47 96.09L321.28 97.21L320.99 98.32L320.6 99.41L320.13 100.48L319.56 101.51L318.91 102.52L318.18 103.48L317.37 104.41L316.49 105.3L315.54 106.14L314.91 106.62L314.98 106.7L315.56 107.46L316.08 108.25L316.55 109.07L316.97 109.93L317.33 110.82L317.63 111.74L317.86 112.68L318.03 113.65L318.14 114.64L318.17 115.65L318.17 125.63L318.14 126.64L318.1 127.02L321.69 127.02L322.24 127.04L322.77 127.09L323.3 127.16L323.82 127.27L324.32 127.4L324.82 127.56L325.3 127.75L325.77 127.97L326.22 128.2L326.66 128.47L327.08 128.75L327.49 129.06L327.88 129.39L328.24 129.74L328.59 130.11L328.92 130.5L329.23 130.9L329.52 131.32L329.78 131.76L330.02 132.22L330.23 132.68L330.42 133.17L330.58 133.66L330.71 134.17L330.82 134.68L330.9 135.21L330.94 135.75L330.96 136.29L330.96 145.56L274.16 145.56L274.16 136.29L274.17 135.75L274.22 135.21L274.3 134.68L274.4 134.17L274.54 133.66L274.7 133.17L274.89 132.68L275.1 132.22L275.34 131.76L275.6 131.32L275.89 130.9L276.19 130.5L276.52 130.11L276.87 129.74L277.24 129.39L277.63 129.06L278.04 128.75L278.46 128.47L278.9 128.2L279.35 127.97L279.82 127.75L280.3 127.56L280.79 127.4L281.3 127.27L281.82 127.16L282.34 127.09L282.88 127.04L283.43 127.02L285.79 127.02L285.75 126.64L285.72 125.63L285.72 115.65L285.75 114.64L285.86 113.65L286.03 112.68L286.27 111.74L286.57 110.82L286.92 109.93L287.34 109.07L287.81 108.25L288.26 107.57L287.79 107.23L286.88 106.46L286.03 105.64L285.26 104.76L284.57 103.84L283.96 102.86L283.44 101.84L283.02 100.78L282.69 99.68L282.46 98.53L282.34 97.37L282.33 96.22L282.42 95.08L282.61 93.95L282.9 92.84L283.29 91.75L283.77 90.69L284.33 89.65L284.98 88.65L285.71 87.68L286.52 86.75L287.4 85.87L288.36 85.03L289.38 84.24L290.47 83.5L291.61 82.82L292.82 82.2L294.08 81.65L295.4 81.16L296.76 80.75L298.16 80.41L299.61 80.14L301.07 79.97L302.51 79.88L303.93 79.87L305.33 79.95L306.7 80.1Z" id="e5DrUFD9m8"></path><path d="M424.59 80.1L425.92 80.34L427.22 80.65L428.48 81.03L429.69 81.48L430.85 82L431.96 82.58L433 83.23L433.99 83.94L434.9 84.7L435.75 85.53L436.52 86.4L437.21 87.33L437.82 88.3L438.33 89.32L438.76 90.39L439.09 91.49L439.32 92.63L439.44 93.79L439.45 94.95L439.36 96.09L439.17 97.21L438.88 98.32L438.49 99.41L438.01 100.48L437.45 101.51L436.8 102.52L436.07 103.48L435.26 104.41L434.38 105.3L433.42 106.14L432.8 106.62L432.87 106.7L433.44 107.46L433.97 108.25L434.44 109.07L434.86 109.93L435.21 110.82L435.51 111.74L435.75 112.68L435.92 113.65L436.03 114.64L436.06 115.65L436.06 125.63L436.03 126.64L435.99 127.02L439.58 127.02L440.12 127.04L440.66 127.09L441.19 127.16L441.7 127.27L442.21 127.4L442.7 127.56L443.19 127.75L443.65 127.97L444.11 128.2L444.55 128.47L444.97 128.75L445.37 129.06L445.76 129.39L446.13 129.74L446.48 130.11L446.81 130.5L447.12 130.9L447.4 131.32L447.67 131.76L447.9 132.22L448.12 132.68L448.31 133.17L448.47 133.66L448.6 134.17L448.71 134.68L448.78 135.21L448.83 135.75L448.85 136.29L448.85 145.56L392.05 145.56L392.05 136.29L392.06 135.75L392.11 135.21L392.19 134.68L392.29 134.17L392.43 133.66L392.59 133.17L392.77 132.68L392.99 132.22L393.23 131.76L393.49 131.32L393.77 130.9L394.08 130.5L394.41 130.11L394.76 129.74L395.13 129.39L395.52 129.06L395.92 128.75L396.35 128.47L396.78 128.2L397.24 127.97L397.71 127.75L398.19 127.56L398.68 127.4L399.19 127.27L399.71 127.16L400.23 127.09L400.77 127.04L401.31 127.02L403.68 127.02L403.64 126.64L403.61 125.63L403.61 115.65L403.64 114.64L403.75 113.65L403.92 112.68L404.15 111.74L404.45 110.82L404.81 109.93L405.23 109.07L405.7 108.25L406.15 107.57L405.68 107.23L404.76 106.46L403.92 105.64L403.15 104.76L402.46 103.84L401.85 102.86L401.33 101.84L400.91 100.78L400.58 99.68L400.35 98.53L400.23 97.37L400.22 96.22L400.31 95.08L400.5 93.95L400.79 92.84L401.18 91.75L401.65 90.69L402.22 89.65L402.87 88.65L403.6 87.68L404.41 86.75L405.29 85.87L406.24 85.03L407.27 84.24L408.35 83.5L409.5 82.82L410.71 82.2L411.97 81.65L413.28 81.16L414.64 80.75L416.05 80.41L417.5 80.14L418.96 79.97L420.4 79.88L421.82 79.87L423.22 79.95L424.59 80.1Z" id="a1hBWcjHu2"></path><path d="M436.41 80.1L437.75 80.34L439.05 80.65L440.3 81.03L441.51 81.48L442.67 82L443.78 82.58L444.83 83.23L445.81 83.94L446.73 84.7L447.57 85.53L448.34 86.4L449.03 87.33L449.64 88.3L450.16 89.32L450.58 90.39L450.91 91.49L451.14 92.63L451.26 93.79L451.27 94.95L451.18 96.09L450.99 97.21L450.7 98.32L450.31 99.41L449.84 100.48L449.27 101.51L448.62 102.52L447.89 103.48L447.08 104.41L446.2 105.3L445.25 106.14L444.62 106.62L444.69 106.7L445.27 107.46L445.79 108.25L446.26 109.07L446.68 109.93L447.04 110.82L447.34 111.74L447.57 112.68L447.74 113.65L447.85 114.64L447.89 115.65L447.89 125.63L447.85 126.64L447.81 127.02L451.4 127.02L451.95 127.04L452.48 127.09L453.01 127.16L453.53 127.27L454.03 127.4L454.53 127.56L455.01 127.75L455.48 127.97L455.93 128.2L456.37 128.47L456.79 128.75L457.2 129.06L457.59 129.39L457.95 129.74L458.3 130.11L458.63 130.5L458.94 130.9L459.23 131.32L459.49 131.76L459.73 132.22L459.94 132.68L460.13 133.17L460.29 133.66L460.42 134.17L460.53 134.68L460.61 135.21L460.65 135.75L460.67 136.29L460.67 145.56L403.87 145.56L403.87 136.29L403.89 135.75L403.93 135.21L404.01 134.68L404.11 134.17L404.25 133.66L404.41 133.17L404.6 132.68L404.81 132.22L405.05 131.76L405.31 131.32L405.6 130.9L405.91 130.5L406.23 130.11L406.58 129.74L406.95 129.39L407.34 129.06L407.75 128.75L408.17 128.47L408.61 128.2L409.06 127.97L409.53 127.75L410.01 127.56L410.51 127.4L411.01 127.27L411.53 127.16L412.06 127.09L412.59 127.04L413.14 127.02L415.5 127.02L415.46 126.64L415.43 125.63L415.43 115.65L415.46 114.64L415.57 113.65L415.74 112.68L415.98 111.74L416.28 110.82L416.64 109.93L417.05 109.07L417.52 108.25L417.97 107.57L417.5 107.23L416.59 106.46L415.74 105.64L414.97 104.76L414.28 103.84L413.67 102.86L413.16 101.84L412.73 100.78L412.4 99.68L412.17 98.53L412.05 97.37L412.04 96.22L412.13 95.08L412.32 93.95L412.61 92.84L413 91.75L413.48 90.69L414.04 89.65L414.69 88.65L415.42 87.68L416.23 86.75L417.11 85.87L418.07 85.03L419.09 84.24L420.18 83.5L421.33 82.82L422.53 82.2L423.79 81.65L425.11 81.16L426.47 80.75L427.87 80.41L429.32 80.14L430.78 79.97L432.22 79.88L433.64 79.87L435.04 79.95L436.41 80.1Z" id="c35FmibJYo"></path><path d="M161.37 130.63L161.87 130.73L162.36 130.87L162.83 131.05L163.28 131.26L163.71 131.5L164.12 131.78L164.5 132.09L164.87 132.42L165.2 132.78L165.51 133.17L165.78 133.58L166.03 134.01L166.24 134.46L166.42 134.93L166.56 135.42L166.66 135.92L166.72 136.43L166.75 136.96L166.75 145.56L127.41 145.56L127.41 136.96L127.43 136.43L127.49 135.92L127.59 135.42L127.74 134.93L127.91 134.46L128.12 134.01L128.37 133.58L128.65 133.17L128.95 132.78L129.29 132.42L129.65 132.09L130.04 131.78L130.45 131.5L130.88 131.26L131.33 131.05L131.8 130.87L132.28 130.73L132.79 130.63L133.3 130.56L133.83 130.54L160.33 130.54L160.85 130.56L161.37 130.63ZM165.01 100.88L164.89 101.32L164.73 101.75L164.54 102.16L164.3 102.55L164.03 102.9L163.73 103.24L163.4 103.54L163.04 103.81L162.66 104.04L162.25 104.24L161.82 104.39L161.37 104.51L160.91 104.58L160.43 104.6L158.45 104.6L158.45 130.54L135.7 130.54L135.7 104.6L134.18 104.6L133.7 104.58L133.24 104.51L132.79 104.39L132.36 104.24L131.95 104.04L131.57 103.81L131.21 103.54L130.88 103.24L130.57 102.9L130.31 102.55L130.07 102.16L129.88 101.75L129.72 101.32L129.6 100.88L129.53 100.41L129.51 99.94L129.51 84.13L138.26 84.13L138.26 93.68L142.93 93.68L142.93 84.13L151.68 84.13L151.68 93.68L156.35 93.68L156.35 84.13L165.1 84.13L165.1 99.94L165.08 100.41L165.01 100.88Z" id="b9uFKPnvC"></path><path d="M519.35 7.74L519.94 7.83L520.51 7.96L521.08 8.12L521.63 8.31L522.16 8.54L522.68 8.79L523.18 9.08L523.66 9.39L524.12 9.74L524.56 10.1L524.98 10.5L525.37 10.91L525.74 11.35L526.08 11.81L526.39 12.29L526.68 12.79L526.93 13.31L527.16 13.84L527.35 14.39L527.52 14.96L527.64 15.54L527.74 16.13L527.79 16.73L527.81 17.34L527.81 22.15L536.25 22.15L536.72 22.17L537.17 22.22L537.61 22.3L538.05 22.42L538.47 22.56L538.87 22.73L539.26 22.93L539.63 23.15L539.99 23.4L540.33 23.68L540.64 23.97L540.94 24.29L541.21 24.63L541.46 24.98L541.69 25.36L541.89 25.75L542.06 26.15L542.2 26.57L542.31 27L542.4 27.45L542.45 27.9L542.46 28.37L542.45 28.83L542.4 29.28L542.31 29.73L542.2 30.16L542.06 30.58L541.89 30.98L541.69 31.37L541.46 31.75L541.21 32.1L540.94 32.44L540.64 32.76L540.33 33.05L539.99 33.33L539.63 33.58L539.26 33.8L538.87 34L538.47 34.17L538.05 34.31L537.61 34.43L537.17 34.51L536.72 34.56L536.25 34.58L527.81 34.58L527.81 51.81L527.79 52.43L527.75 52.9L538.93 52.9L539.57 52.92L540.21 52.98L540.83 53.07L541.43 53.2L542.02 53.36L542.59 53.55L543.15 53.77L543.69 54.03L544.21 54.31L544.71 54.62L545.19 54.96L545.65 55.32L546.09 55.7L546.51 56.11L546.9 56.54L547.27 56.99L547.61 57.46L547.93 57.95L548.22 58.45L548.48 58.97L548.71 59.5L548.92 60.05L549.09 60.61L549.24 61.18L549.35 61.76L549.43 62.34L549.47 62.94L549.48 63.54L549.46 64.14L549.4 64.75L549.3 65.36L549.17 65.97L549 66.58L548.79 67.19L540.87 88.02L540.74 88.35L540.59 88.68L540.44 88.99L540.27 89.3L540.1 89.61L539.91 89.9L539.72 90.19L539.51 90.47L539.3 90.74L539.08 91L538.85 91.25L538.61 91.5L538.36 91.73L538.1 91.96L537.84 92.18L537.57 92.39L537.29 92.59L537.08 92.73L537.08 112.79L539.53 114.15L540.03 114.44L540.53 114.74L541.01 115.05L541.49 115.37L541.96 115.71L542.42 116.05L542.87 116.41L543.3 116.77L543.73 117.15L544.15 117.53L544.56 117.93L544.96 118.34L545.35 118.75L545.72 119.18L546.09 119.61L546.44 120.05L546.79 120.5L547.12 120.96L547.44 121.43L547.75 121.9L548.05 122.38L548.34 122.87L548.61 123.37L548.87 123.87L549.12 124.38L549.36 124.9L549.58 125.42L549.79 125.95L549.99 126.49L550.18 127.03L550.35 127.57L550.51 128.12L550.65 128.68L550.78 129.24L550.9 129.81L551.01 130.38L551.1 130.95L553.18 145.56L483.37 145.56L483.37 134.17L483.37 133.59L483.4 133.02L483.44 132.45L483.49 131.88L483.56 131.31L483.64 130.75L483.74 130.19L483.85 129.64L483.98 129.09L484.12 128.54L484.27 128L484.44 127.47L484.63 126.93L484.82 126.41L485.03 125.89L485.26 125.37L485.49 124.87L485.75 124.37L486.01 123.87L486.28 123.38L486.57 122.9L486.87 122.43L487.19 121.97L487.52 121.51L487.85 121.06L488.2 120.62L488.57 120.19L488.94 119.77L489.33 119.35L489.72 118.95L490.13 118.56L490.55 118.18L490.98 117.8L491.42 117.44L491.88 117.09L492.34 116.75L492.81 116.42L499.47 111.94L499.47 91.51L499.44 91.48L499.2 91.23L498.97 90.98L498.75 90.71L498.54 90.44L498.34 90.16L498.15 89.87L497.97 89.58L497.79 89.28L497.63 88.97L497.48 88.65L497.34 88.32L497.22 87.99L489.99 68.2L489.77 67.54L489.59 66.88L489.46 66.23L489.36 65.57L489.31 64.92L489.29 64.27L489.31 63.63L489.36 62.99L489.45 62.36L489.58 61.74L489.74 61.13L489.93 60.53L490.16 59.95L490.41 59.38L490.7 58.82L491.01 58.28L491.36 57.76L491.73 57.26L492.12 56.78L492.55 56.32L493 55.89L493.47 55.48L493.96 55.09L494.48 54.73L495.02 54.4L495.58 54.1L496.16 53.83L496.76 53.59L497.37 53.39L498.01 53.21L498.66 53.08L499.32 52.98L500 52.92L500.69 52.9L508.51 52.9L508.47 52.43L508.45 51.81L508.45 34.58L500.01 34.58L499.54 34.56L499.09 34.51L498.64 34.43L498.21 34.31L497.79 34.17L497.39 34L497 33.8L496.62 33.58L496.27 33.33L495.93 33.05L495.61 32.76L495.32 32.44L495.04 32.1L494.79 31.75L494.57 31.37L494.37 30.98L494.2 30.58L494.06 30.16L493.94 29.73L493.86 29.28L493.81 28.83L493.79 28.37L493.81 27.9L493.86 27.45L493.94 27L494.06 26.57L494.2 26.15L494.37 25.75L494.57 25.36L494.79 24.98L495.04 24.63L495.32 24.29L495.61 23.97L495.93 23.68L496.27 23.4L496.62 23.15L497 22.93L497.39 22.73L497.79 22.56L498.21 22.42L498.64 22.3L499.09 22.22L499.54 22.17L500.01 22.15L508.45 22.15L508.45 17.34L508.47 16.73L508.52 16.13L508.61 15.54L508.74 14.96L508.9 14.39L509.1 13.84L509.32 13.31L509.58 12.79L509.87 12.29L510.18 11.81L510.52 11.35L510.89 10.91L511.28 10.5L511.7 10.1L512.14 9.74L512.6 9.39L513.08 9.08L513.58 8.79L514.09 8.54L514.63 8.31L515.18 8.12L515.74 7.96L516.32 7.83L516.91 7.74L517.51 7.68L518.13 7.66L518.13 7.66L518.74 7.68L519.35 7.74Z" id="d17j69u0Pe"></path></defs><g><g><g><use xlink:href="#bpvgGx3y7" opacity="1" fill="#56776a" fill-opacity="1"></use></g><g><use xlink:href="#a40gE3i7Rb" opacity="1" fill="#4d4646" fill-opacity="1"></use></g><g><g><filter id="shadow3701750" x="179.55" y="27.21" width="65.18" height="127.34" filterUnits="userSpaceOnUse" primitiveUnits="userSpaceOnUse"><feFlood></feFlood><feComposite in2="SourceAlpha" operator="in"></feComposite><feGaussianBlur stdDeviation="1"></feGaussianBlur><feOffset dx="-1" dy="-1" result="afterOffset"></feOffset><feFlood flood-color="#000000" flood-opacity="0.5"></feFlood><feComposite in2="afterOffset" operator="in"></feComposite><feMorphology operator="dilate" radius="0"></feMorphology><feComposite in2="SourceAlpha" operator="out"></feComposite></filter><path d="M212.62 35.3L213.14 35.41L213.65 35.55L214.14 35.74L214.6 35.96L215.05 36.21L215.48 36.5L215.88 36.82L216.26 37.17L216.61 37.55L216.93 37.95L217.21 38.38L217.47 38.82L217.69 39.29L217.88 39.78L218.02 40.29L218.13 40.81L218.19 41.35L218.22 41.9L218.22 46.81L224.04 46.81L224.51 46.84L224.96 46.91L225.39 47.03L225.81 47.19L226.2 47.4L226.57 47.64L226.91 47.92L227.22 48.23L227.5 48.57L227.74 48.93L227.95 49.33L228.11 49.74L228.23 50.18L228.3 50.63L228.33 51.1L228.33 52.46L228.3 52.93L228.23 53.38L228.11 53.82L227.95 54.24L227.74 54.63L227.5 55L227.22 55.34L226.91 55.65L226.57 55.93L226.2 56.17L225.81 56.37L225.39 56.53L224.96 56.65L224.51 56.73L224.04 56.75L218.22 56.75L218.22 71.42L225.88 71.42L226.5 71.44L227.1 71.51L227.69 71.63L228.25 71.78L228.79 71.98L229.32 72.22L229.82 72.5L230.29 72.81L230.74 73.15L231.16 73.52L231.55 73.92L231.91 74.35L232.24 74.81L232.53 75.28L232.79 75.78L233.02 76.29L233.2 76.83L233.35 77.37L233.45 77.93L233.52 78.5L233.54 79.08L233.51 79.67L233.44 80.26L233.32 80.85L233.15 81.44L227.02 100.14L226.91 100.45L226.79 100.75L226.65 101.05L226.49 101.33L226.33 101.61L226.15 101.87L225.95 102.13L225.75 102.37L225.53 102.61L225.31 102.83L225.07 103.04L224.82 103.24L224.61 103.39L224.61 119.34L226.56 120.59L227.02 120.9L227.47 121.22L227.91 121.55L228.33 121.9L228.74 122.26L229.14 122.63L229.52 123.02L229.89 123.41L230.25 123.82L230.6 124.24L230.93 124.66L231.24 125.1L231.54 125.55L231.83 126.01L232.1 126.47L232.36 126.95L232.6 127.43L232.83 127.93L233.04 128.42L233.24 128.93L233.41 129.44L233.58 129.96L233.72 130.49L233.85 131.02L233.96 131.56L234.06 132.1L234.13 132.65L235.72 145.56L187.55 145.56L187.55 135.19L187.56 134.64L187.58 134.1L187.63 133.55L187.69 133.01L187.78 132.47L187.88 131.94L188 131.41L188.13 130.89L188.28 130.37L188.45 129.86L188.64 129.36L188.84 128.86L189.06 128.37L189.3 127.89L189.55 127.41L189.82 126.95L190.1 126.49L190.4 126.04L190.71 125.6L191.04 125.18L191.38 124.76L191.74 124.35L192.11 123.96L192.5 123.57L192.9 123.2L193.32 122.84L193.74 122.5L198.66 118.66L198.66 102.48L198.55 102.36L198.35 102.12L198.16 101.86L197.98 101.59L197.82 101.32L197.67 101.03L197.53 100.74L197.41 100.43L197.3 100.12L191.64 82.14L191.46 81.5L191.34 80.86L191.27 80.23L191.25 79.6L191.28 78.98L191.35 78.37L191.47 77.77L191.63 77.19L191.84 76.62L192.08 76.07L192.36 75.54L192.68 75.03L193.04 74.54L193.43 74.09L193.85 73.66L194.3 73.26L194.78 72.9L195.29 72.57L195.83 72.27L196.39 72.02L196.97 71.81L197.57 71.64L198.2 71.52L198.84 71.44L199.5 71.42L204.85 71.42L204.85 56.75L199.03 56.75L198.56 56.73L198.11 56.65L197.67 56.53L197.26 56.37L196.87 56.17L196.5 55.93L196.16 55.65L195.85 55.34L195.57 55L195.33 54.63L195.12 54.24L194.96 53.82L194.84 53.38L194.77 52.93L194.74 52.46L194.74 51.1L194.77 50.63L194.84 50.18L194.96 49.74L195.12 49.33L195.33 48.93L195.57 48.57L195.85 48.23L196.16 47.92L196.5 47.64L196.87 47.4L197.26 47.19L197.67 47.03L198.11 46.91L198.56 46.84L199.03 46.81L204.85 46.81L204.85 41.9L204.88 41.35L204.94 40.81L205.05 40.29L205.19 39.78L205.38 39.29L205.6 38.82L205.85 38.38L206.14 37.95L206.46 37.55L206.81 37.17L207.19 36.82L207.59 36.5L208.02 36.21L208.46 35.96L208.93 35.74L209.42 35.55L209.93 35.41L210.45 35.3L210.99 35.24L211.53 35.21L212.08 35.24L212.62 35.3Z" id="b1hs0DkfGN" fill="white" fill-opacity="1" filter="url(#shadow3701750)"></path></g><use xlink:href="#e2ss6aMWA9" opacity="1" fill="#cbcbcb" fill-opacity="1"></use></g><g><g><filter id="shadow3861653" x="40.35" y="52.95" width="79.52" height="101.61" filterUnits="userSpaceOnUse" primitiveUnits="userSpaceOnUse"><feFlood></feFlood><feComposite in2="SourceAlpha" operator="in"></feComposite><feGaussianBlur stdDeviation="1"></feGaussianBlur><feOffset dx="-1" dy="-1" result="afterOffset"></feOffset><feFlood flood-color="#000000" flood-opacity="0.5"></feFlood><feComposite in2="afterOffset" operator="in"></feComposite><feMorphology operator="dilate" radius="0"></feMorphology><feComposite in2="SourceAlpha" operator="out"></feComposite></filter><path d="M108.2 82.66L108.13 83.11L108.03 83.56L107.91 83.99L107.76 84.41L107.59 84.82L107.39 85.22L107.17 85.6L106.93 85.97L106.67 86.32L106.39 86.66L106.09 86.98L105.77 87.28L105.43 87.56L105.08 87.82L104.71 88.06L104.33 88.28L103.93 88.48L103.52 88.65L103.1 88.8L102.67 88.92L102.22 89.02L101.77 89.09L101.31 89.13L100.84 89.15L97.7 89.15L97.7 124.87L100.67 124.87L101.21 124.89L101.75 124.93L102.27 125L102.79 125.1L103.3 125.22L103.8 125.36L104.29 125.53L104.76 125.73L105.22 125.94L105.67 126.18L106.11 126.44L106.53 126.72L106.94 127.03L107.33 127.35L107.7 127.69L108.06 128.04L108.4 128.42L108.72 128.81L109.02 129.22L109.3 129.64L109.56 130.07L109.8 130.52L110.02 130.99L110.21 131.46L110.39 131.95L110.53 132.45L110.65 132.96L110.75 133.47L110.82 134L110.86 134.53L110.87 135.08L110.87 145.56L48.35 145.56L48.35 135.08L48.37 134.53L48.41 134L48.48 133.47L48.57 132.96L48.69 132.45L48.84 131.95L49.01 131.46L49.21 130.99L49.42 130.52L49.66 130.07L49.92 129.64L50.2 129.22L50.5 128.81L50.82 128.42L51.16 128.04L51.52 127.69L51.9 127.35L52.29 127.03L52.69 126.72L53.12 126.44L53.55 126.18L54 125.94L54.47 125.73L54.94 125.53L55.43 125.36L55.93 125.22L56.43 125.1L56.95 125L57.48 124.93L58.01 124.89L58.55 124.87L61.53 124.87L61.53 89.15L59.11 89.15L58.64 89.13L58.18 89.09L57.73 89.02L57.28 88.92L56.85 88.8L56.43 88.65L56.02 88.48L55.62 88.28L55.24 88.06L54.87 87.82L54.52 87.56L54.18 87.28L53.86 86.98L53.56 86.66L53.28 86.32L53.02 85.97L52.78 85.6L52.56 85.22L52.36 84.82L52.19 84.41L52.04 83.99L51.92 83.56L51.82 83.11L51.75 82.66L51.71 82.2L51.69 81.73L51.69 60.95L65.6 60.95L65.6 74.11L73.02 74.11L73.02 60.95L86.93 60.95L86.93 74.11L94.35 74.11L94.35 60.95L108.26 60.95L108.26 81.73L108.24 82.2L108.2 82.66Z" id="e1WsMARfQX" fill="white" fill-opacity="1" filter="url(#shadow3861653)"></path></g><use xlink:href="#a24zulCUOy" opacity="1" fill="#cbcbcb" fill-opacity="1"></use></g><g><g><filter id="shadow8750284" x="371.06" y="71.87" width="73.8" height="82.69" filterUnits="userSpaceOnUse" primitiveUnits="userSpaceOnUse"><feFlood></feFlood><feComposite in2="SourceAlpha" operator="in"></feComposite><feGaussianBlur stdDeviation="1"></feGaussianBlur><feOffset dx="-1" dy="-1" result="afterOffset"></feOffset><feFlood flood-color="#000000" flood-opacity="0.5"></feFlood><feComposite in2="afterOffset" operator="in"></feComposite><feMorphology operator="dilate" radius="0"></feMorphology><feComposite in2="SourceAlpha" operator="out"></feComposite></filter><path d="M411.61 80.1L412.94 80.34L414.24 80.65L415.5 81.03L416.71 81.48L417.87 82L418.97 82.58L420.02 83.23L421 83.94L421.92 84.7L422.77 85.53L423.54 86.4L424.23 87.33L424.83 88.3L425.35 89.32L425.78 90.39L426.11 91.49L426.33 92.63L426.46 93.79L426.47 94.95L426.38 96.09L426.18 97.21L425.89 98.32L425.51 99.41L425.03 100.48L424.47 101.51L423.82 102.52L423.09 103.48L422.28 104.41L421.39 105.3L420.44 106.14L419.82 106.62L419.89 106.7L420.46 107.46L420.99 108.25L421.46 109.07L421.87 109.93L422.23 110.82L422.53 111.74L422.77 112.68L422.94 113.65L423.04 114.64L423.08 115.65L423.08 125.63L423.04 126.64L423 127.02L426.6 127.02L427.14 127.04L427.68 127.09L428.2 127.16L428.72 127.27L429.23 127.4L429.72 127.56L430.2 127.75L430.67 127.97L431.13 128.2L431.56 128.47L431.99 128.75L432.39 129.06L432.78 129.39L433.15 129.74L433.5 130.11L433.83 130.5L434.13 130.9L434.42 131.32L434.68 131.76L434.92 132.22L435.13 132.68L435.32 133.17L435.48 133.66L435.62 134.17L435.72 134.68L435.8 135.21L435.85 135.75L435.86 136.29L435.86 145.56L379.06 145.56L379.06 136.29L379.08 135.75L379.13 135.21L379.2 134.68L379.31 134.17L379.44 133.66L379.6 133.17L379.79 132.68L380.01 132.22L380.24 131.76L380.51 131.32L380.79 130.9L381.1 130.5L381.43 130.11L381.78 129.74L382.15 129.39L382.53 129.06L382.94 128.75L383.36 128.47L383.8 128.2L384.25 127.97L384.72 127.75L385.2 127.56L385.7 127.4L386.21 127.27L386.72 127.16L387.25 127.09L387.79 127.04L388.33 127.02L390.7 127.02L390.66 126.64L390.62 125.63L390.62 115.65L390.66 114.64L390.76 113.65L390.93 112.68L391.17 111.74L391.47 110.82L391.83 109.93L392.24 109.07L392.72 108.25L393.17 107.57L392.7 107.23L391.78 106.46L390.93 105.64L390.16 104.76L389.47 103.84L388.87 102.86L388.35 101.84L387.92 100.78L387.59 99.68L387.37 98.53L387.25 97.37L387.23 96.22L387.32 95.08L387.52 93.95L387.81 92.84L388.19 91.75L388.67 90.69L389.24 89.65L389.88 88.65L390.62 87.68L391.42 86.75L392.31 85.87L393.26 85.03L394.28 84.24L395.37 83.5L396.52 82.82L397.73 82.2L398.99 81.65L400.3 81.16L401.66 80.75L403.07 80.41L404.51 80.14L405.97 79.97L407.42 79.88L408.84 79.87L410.24 79.95L411.61 80.1Z" id="cMiC4150n" fill="white" fill-opacity="1" filter="url(#shadow8750284)"></path></g><use xlink:href="#bGhLpyO1R" opacity="1" fill="#292929" fill-opacity="1"></use></g><g><g><filter id="shadow12831442" x="248.19" y="71.87" width="73.8" height="82.69" filterUnits="userSpaceOnUse" primitiveUnits="userSpaceOnUse"><feFlood></feFlood><feComposite in2="SourceAlpha" operator="in"></feComposite><feGaussianBlur stdDeviation="1"></feGaussianBlur><feOffset dx="-1" dy="-1" result="afterOffset"></feOffset><feFlood flood-color="#000000" flood-opacity="0.5"></feFlood><feComposite in2="afterOffset" operator="in"></feComposite><feMorphology operator="dilate" radius="0"></feMorphology><feComposite in2="SourceAlpha" operator="out"></feComposite></filter><path d="M288.73 80.1L290.07 80.34L291.37 80.65L292.62 81.03L293.83 81.48L294.99 82L296.1 82.58L297.15 83.23L298.13 83.94L299.05 84.7L299.9 85.53L300.67 86.4L301.36 87.33L301.96 88.3L302.48 89.32L302.91 90.39L303.23 91.49L303.46 92.63L303.58 93.79L303.6 94.95L303.51 96.09L303.31 97.21L303.02 98.32L302.64 99.41L302.16 100.48L301.59 101.51L300.95 102.52L300.21 103.48L299.41 104.41L298.52 105.3L297.57 106.14L296.94 106.62L297.02 106.7L297.59 107.46L298.11 108.25L298.58 109.07L299 109.93L299.36 110.82L299.66 111.74L299.89 112.68L300.07 113.65L300.17 114.64L300.21 115.65L300.21 125.63L300.17 126.64L300.13 127.02L303.72 127.02L304.27 127.04L304.81 127.09L305.33 127.16L305.85 127.27L306.36 127.4L306.85 127.56L307.33 127.75L307.8 127.97L308.25 128.2L308.69 128.47L309.11 128.75L309.52 129.06L309.91 129.39L310.28 129.74L310.63 130.11L310.96 130.5L311.26 130.9L311.55 131.32L311.81 131.76L312.05 132.22L312.26 132.68L312.45 133.17L312.61 133.66L312.75 134.17L312.85 134.68L312.93 135.21L312.98 135.75L312.99 136.29L312.99 145.56L256.19 145.56L256.19 136.29L256.21 135.75L256.25 135.21L256.33 134.68L256.44 134.17L256.57 133.66L256.73 133.17L256.92 132.68L257.13 132.22L257.37 131.76L257.63 131.32L257.92 130.9L258.23 130.5L258.56 130.11L258.91 129.74L259.27 129.39L259.66 129.06L260.07 128.75L260.49 128.47L260.93 128.2L261.38 127.97L261.85 127.75L262.33 127.56L262.83 127.4L263.33 127.27L263.85 127.16L264.38 127.09L264.91 127.04L265.46 127.02L267.83 127.02L267.79 126.64L267.75 125.63L267.75 115.65L267.79 114.64L267.89 113.65L268.06 112.68L268.3 111.74L268.6 110.82L268.96 109.93L269.37 109.07L269.84 108.25L270.3 107.57L269.83 107.23L268.91 106.46L268.06 105.64L267.29 104.76L266.6 103.84L266 102.86L265.48 101.84L265.05 100.78L264.72 99.68L264.5 98.53L264.37 97.37L264.36 96.22L264.45 95.08L264.65 93.95L264.94 92.84L265.32 91.75L265.8 90.69L266.36 89.65L267.01 88.65L267.74 87.68L268.55 86.75L269.43 85.87L270.39 85.03L271.41 84.24L272.5 83.5L273.65 82.82L274.85 82.2L276.12 81.65L277.43 81.16L278.79 80.75L280.19 80.41L281.64 80.14L283.1 79.97L284.54 79.88L285.97 79.87L287.36 79.95L288.73 80.1Z" id="aD3DEmC3K" fill="white" fill-opacity="1" filter="url(#shadow12831442)"></path></g><use xlink:href="#i5G99dJNao" opacity="1" fill="#cbcbcb" fill-opacity="1"></use></g><g><g><filter id="shadow4810753" x="314.26" y="71.87" width="73.8" height="82.69" filterUnits="userSpaceOnUse" primitiveUnits="userSpaceOnUse"><feFlood></feFlood><feComposite in2="SourceAlpha" operator="in"></feComposite><feGaussianBlur stdDeviation="1"></feGaussianBlur><feOffset dx="-1" dy="-1" result="afterOffset"></feOffset><feFlood flood-color="#000000" flood-opacity="0.5"></feFlood><feComposite in2="afterOffset" operator="in"></feComposite><feMorphology operator="dilate" radius="0"></feMorphology><feComposite in2="SourceAlpha" operator="out"></feComposite></filter><path d="M354.81 80.1L356.14 80.34L357.44 80.65L358.7 81.03L359.91 81.48L361.07 82L362.17 82.58L363.22 83.23L364.2 83.94L365.12 84.7L365.97 85.53L366.74 86.4L367.43 87.33L368.03 88.3L368.55 89.32L368.98 90.39L369.31 91.49L369.54 92.63L369.66 93.79L369.67 94.95L369.58 96.09L369.38 97.21L369.09 98.32L368.71 99.41L368.23 100.48L367.67 101.51L367.02 102.52L366.29 103.48L365.48 104.41L364.6 105.3L363.64 106.14L363.02 106.62L363.09 106.7L363.66 107.46L364.19 108.25L364.66 109.07L365.07 109.93L365.43 110.82L365.73 111.74L365.97 112.68L366.14 113.65L366.24 114.64L366.28 115.65L366.28 125.63L366.24 126.64L366.2 127.02L369.8 127.02L370.34 127.04L370.88 127.09L371.4 127.16L371.92 127.27L372.43 127.4L372.92 127.56L373.4 127.75L373.87 127.97L374.33 128.2L374.76 128.47L375.19 128.75L375.59 129.06L375.98 129.39L376.35 129.74L376.7 130.11L377.03 130.5L377.34 130.9L377.62 131.32L377.88 131.76L378.12 132.22L378.34 132.68L378.52 133.17L378.68 133.66L378.82 134.17L378.92 134.68L379 135.21L379.05 135.75L379.06 136.29L379.06 145.56L322.26 145.56L322.26 136.29L322.28 135.75L322.33 135.21L322.4 134.68L322.51 134.17L322.64 133.66L322.8 133.17L322.99 132.68L323.21 132.22L323.44 131.76L323.71 131.32L323.99 130.9L324.3 130.5L324.63 130.11L324.98 129.74L325.35 129.39L325.74 129.06L326.14 128.75L326.56 128.47L327 128.2L327.46 127.97L327.92 127.75L328.41 127.56L328.9 127.4L329.41 127.27L329.92 127.16L330.45 127.09L330.99 127.04L331.53 127.02L333.9 127.02L333.86 126.64L333.82 125.63L333.82 115.65L333.86 114.64L333.96 113.65L334.14 112.68L334.37 111.74L334.67 110.82L335.03 109.93L335.45 109.07L335.92 108.25L336.37 107.57L335.9 107.23L334.98 106.46L334.14 105.64L333.37 104.76L332.67 103.84L332.07 102.86L331.55 101.84L331.12 100.78L330.8 99.68L330.57 98.53L330.45 97.37L330.43 96.22L330.53 95.08L330.72 93.95L331.01 92.84L331.39 91.75L331.87 90.69L332.44 89.65L333.09 88.65L333.82 87.68L334.62 86.75L335.51 85.87L336.46 85.03L337.48 84.24L338.57 83.5L339.72 82.82L340.93 82.2L342.19 81.65L343.5 81.16L344.86 80.75L346.27 80.41L347.71 80.14L349.17 79.97L350.62 79.88L352.04 79.87L353.44 79.95L354.81 80.1Z" id="avC4zrdqE" fill="white" fill-opacity="1" filter="url(#shadow4810753)"></path></g><use xlink:href="#b2xkc4d2kN" opacity="1" fill="#cbcbcb" fill-opacity="1"></use></g><g><g><filter id="shadow13444654" x="265.16" y="70.87" width="74.8" height="84.69" filterUnits="userSpaceOnUse" primitiveUnits="userSpaceOnUse"><feFlood></feFlood><feComposite in2="SourceAlpha" operator="in"></feComposite><feGaussianBlur stdDeviation="1"></feGaussianBlur><feOffset dx="0" dy="-1" result="afterOffset"></feOffset><feFlood flood-color="#000000" flood-opacity="0.36"></feFlood><feComposite in2="afterOffset" operator="in"></feComposite><feMorphology operator="dilate" radius="1"></feMorphology><feComposite in2="SourceAlpha" operator="out"></feComposite></filter><path d="M306.7 80.1L308.04 80.34L309.33 80.65L310.59 81.03L311.8 81.48L312.96 82L314.07 82.58L315.11 83.23L316.1 83.94L317.02 84.7L317.86 85.53L318.63 86.4L319.32 87.33L319.93 88.3L320.45 89.32L320.87 90.39L321.2 91.49L321.43 92.63L321.55 93.79L321.56 94.95L321.47 96.09L321.28 97.21L320.99 98.32L320.6 99.41L320.13 100.48L319.56 101.51L318.91 102.52L318.18 103.48L317.37 104.41L316.49 105.3L315.54 106.14L314.91 106.62L314.98 106.7L315.56 107.46L316.08 108.25L316.55 109.07L316.97 109.93L317.33 110.82L317.63 111.74L317.86 112.68L318.03 113.65L318.14 114.64L318.17 115.65L318.17 125.63L318.14 126.64L318.1 127.02L321.69 127.02L322.24 127.04L322.77 127.09L323.3 127.16L323.82 127.27L324.32 127.4L324.82 127.56L325.3 127.75L325.77 127.97L326.22 128.2L326.66 128.47L327.08 128.75L327.49 129.06L327.88 129.39L328.24 129.74L328.59 130.11L328.92 130.5L329.23 130.9L329.52 131.32L329.78 131.76L330.02 132.22L330.23 132.68L330.42 133.17L330.58 133.66L330.71 134.17L330.82 134.68L330.9 135.21L330.94 135.75L330.96 136.29L330.96 145.56L274.16 145.56L274.16 136.29L274.17 135.75L274.22 135.21L274.3 134.68L274.4 134.17L274.54 133.66L274.7 133.17L274.89 132.68L275.1 132.22L275.34 131.76L275.6 131.32L275.89 130.9L276.19 130.5L276.52 130.11L276.87 129.74L277.24 129.39L277.63 129.06L278.04 128.75L278.46 128.47L278.9 128.2L279.35 127.97L279.82 127.75L280.3 127.56L280.79 127.4L281.3 127.27L281.82 127.16L282.34 127.09L282.88 127.04L283.43 127.02L285.79 127.02L285.75 126.64L285.72 125.63L285.72 115.65L285.75 114.64L285.86 113.65L286.03 112.68L286.27 111.74L286.57 110.82L286.92 109.93L287.34 109.07L287.81 108.25L288.26 107.57L287.79 107.23L286.88 106.46L286.03 105.64L285.26 104.76L284.57 103.84L283.96 102.86L283.44 101.84L283.02 100.78L282.69 99.68L282.46 98.53L282.34 97.37L282.33 96.22L282.42 95.08L282.61 93.95L282.9 92.84L283.29 91.75L283.77 90.69L284.33 89.65L284.98 88.65L285.71 87.68L286.52 86.75L287.4 85.87L288.36 85.03L289.38 84.24L290.47 83.5L291.61 82.82L292.82 82.2L294.08 81.65L295.4 81.16L296.76 80.75L298.16 80.41L299.61 80.14L301.07 79.97L302.51 79.88L303.93 79.87L305.33 79.95L306.7 80.1Z" id="cwFEn7Aey" fill="white" fill-opacity="1" filter="url(#shadow13444654)"></path></g><use xlink:href="#e5DrUFD9m8" opacity="1" fill="#cbcbcb" fill-opacity="1"></use></g><g><g><filter id="shadow10174992" x="384.05" y="71.87" width="73.8" height="82.69" filterUnits="userSpaceOnUse" primitiveUnits="userSpaceOnUse"><feFlood></feFlood><feComposite in2="SourceAlpha" operator="in"></feComposite><feGaussianBlur stdDeviation="1"></feGaussianBlur><feOffset dx="-1" dy="-1" result="afterOffset"></feOffset><feFlood flood-color="#000000" flood-opacity="0.5"></feFlood><feComposite in2="afterOffset" operator="in"></feComposite><feMorphology operator="dilate" radius="0"></feMorphology><feComposite in2="SourceAlpha" operator="out"></feComposite></filter><path d="M424.59 80.1L425.92 80.34L427.22 80.65L428.48 81.03L429.69 81.48L430.85 82L431.96 82.58L433 83.23L433.99 83.94L434.9 84.7L435.75 85.53L436.52 86.4L437.21 87.33L437.82 88.3L438.33 89.32L438.76 90.39L439.09 91.49L439.32 92.63L439.44 93.79L439.45 94.95L439.36 96.09L439.17 97.21L438.88 98.32L438.49 99.41L438.01 100.48L437.45 101.51L436.8 102.52L436.07 103.48L435.26 104.41L434.38 105.3L433.42 106.14L432.8 106.62L432.87 106.7L433.44 107.46L433.97 108.25L434.44 109.07L434.86 109.93L435.21 110.82L435.51 111.74L435.75 112.68L435.92 113.65L436.03 114.64L436.06 115.65L436.06 125.63L436.03 126.64L435.99 127.02L439.58 127.02L440.12 127.04L440.66 127.09L441.19 127.16L441.7 127.27L442.21 127.4L442.7 127.56L443.19 127.75L443.65 127.97L444.11 128.2L444.55 128.47L444.97 128.75L445.37 129.06L445.76 129.39L446.13 129.74L446.48 130.11L446.81 130.5L447.12 130.9L447.4 131.32L447.67 131.76L447.9 132.22L448.12 132.68L448.31 133.17L448.47 133.66L448.6 134.17L448.71 134.68L448.78 135.21L448.83 135.75L448.85 136.29L448.85 145.56L392.05 145.56L392.05 136.29L392.06 135.75L392.11 135.21L392.19 134.68L392.29 134.17L392.43 133.66L392.59 133.17L392.77 132.68L392.99 132.22L393.23 131.76L393.49 131.32L393.77 130.9L394.08 130.5L394.41 130.11L394.76 129.74L395.13 129.39L395.52 129.06L395.92 128.75L396.35 128.47L396.78 128.2L397.24 127.97L397.71 127.75L398.19 127.56L398.68 127.4L399.19 127.27L399.71 127.16L400.23 127.09L400.77 127.04L401.31 127.02L403.68 127.02L403.64 126.64L403.61 125.63L403.61 115.65L403.64 114.64L403.75 113.65L403.92 112.68L404.15 111.74L404.45 110.82L404.81 109.93L405.23 109.07L405.7 108.25L406.15 107.57L405.68 107.23L404.76 106.46L403.92 105.64L403.15 104.76L402.46 103.84L401.85 102.86L401.33 101.84L400.91 100.78L400.58 99.68L400.35 98.53L400.23 97.37L400.22 96.22L400.31 95.08L400.5 93.95L400.79 92.84L401.18 91.75L401.65 90.69L402.22 89.65L402.87 88.65L403.6 87.68L404.41 86.75L405.29 85.87L406.24 85.03L407.27 84.24L408.35 83.5L409.5 82.82L410.71 82.2L411.97 81.65L413.28 81.16L414.64 80.75L416.05 80.41L417.5 80.14L418.96 79.97L420.4 79.88L421.82 79.87L423.22 79.95L424.59 80.1Z" id="d23E0rpMf0" fill="white" fill-opacity="1" filter="url(#shadow10174992)"></path></g><use xlink:href="#a1hBWcjHu2" opacity="1" fill="#292929" fill-opacity="1"></use></g><g><g><filter id="shadow1741286" x="395.87" y="71.87" width="73.8" height="82.69" filterUnits="userSpaceOnUse" primitiveUnits="userSpaceOnUse"><feFlood></feFlood><feComposite in2="SourceAlpha" operator="in"></feComposite><feGaussianBlur stdDeviation="1"></feGaussianBlur><feOffset dx="-1" dy="-1" result="afterOffset"></feOffset><feFlood flood-color="#000000" flood-opacity="0.5"></feFlood><feComposite in2="afterOffset" operator="in"></feComposite><feMorphology operator="dilate" radius="0"></feMorphology><feComposite in2="SourceAlpha" operator="out"></feComposite></filter><path d="M436.41 80.1L437.75 80.34L439.05 80.65L440.3 81.03L441.51 81.48L442.67 82L443.78 82.58L444.83 83.23L445.81 83.94L446.73 84.7L447.57 85.53L448.34 86.4L449.03 87.33L449.64 88.3L450.16 89.32L450.58 90.39L450.91 91.49L451.14 92.63L451.26 93.79L451.27 94.95L451.18 96.09L450.99 97.21L450.7 98.32L450.31 99.41L449.84 100.48L449.27 101.51L448.62 102.52L447.89 103.48L447.08 104.41L446.2 105.3L445.25 106.14L444.62 106.62L444.69 106.7L445.27 107.46L445.79 108.25L446.26 109.07L446.68 109.93L447.04 110.82L447.34 111.74L447.57 112.68L447.74 113.65L447.85 114.64L447.89 115.65L447.89 125.63L447.85 126.64L447.81 127.02L451.4 127.02L451.95 127.04L452.48 127.09L453.01 127.16L453.53 127.27L454.03 127.4L454.53 127.56L455.01 127.75L455.48 127.97L455.93 128.2L456.37 128.47L456.79 128.75L457.2 129.06L457.59 129.39L457.95 129.74L458.3 130.11L458.63 130.5L458.94 130.9L459.23 131.32L459.49 131.76L459.73 132.22L459.94 132.68L460.13 133.17L460.29 133.66L460.42 134.17L460.53 134.68L460.61 135.21L460.65 135.75L460.67 136.29L460.67 145.56L403.87 145.56L403.87 136.29L403.89 135.75L403.93 135.21L404.01 134.68L404.11 134.17L404.25 133.66L404.41 133.17L404.6 132.68L404.81 132.22L405.05 131.76L405.31 131.32L405.6 130.9L405.91 130.5L406.23 130.11L406.58 129.74L406.95 129.39L407.34 129.06L407.75 128.75L408.17 128.47L408.61 128.2L409.06 127.97L409.53 127.75L410.01 127.56L410.51 127.4L411.01 127.27L411.53 127.16L412.06 127.09L412.59 127.04L413.14 127.02L415.5 127.02L415.46 126.64L415.43 125.63L415.43 115.65L415.46 114.64L415.57 113.65L415.74 112.68L415.98 111.74L416.28 110.82L416.64 109.93L417.05 109.07L417.52 108.25L417.97 107.57L417.5 107.23L416.59 106.46L415.74 105.64L414.97 104.76L414.28 103.84L413.67 102.86L413.16 101.84L412.73 100.78L412.4 99.68L412.17 98.53L412.05 97.37L412.04 96.22L412.13 95.08L412.32 93.95L412.61 92.84L413 91.75L413.48 90.69L414.04 89.65L414.69 88.65L415.42 87.68L416.23 86.75L417.11 85.87L418.07 85.03L419.09 84.24L420.18 83.5L421.33 82.82L422.53 82.2L423.79 81.65L425.11 81.16L426.47 80.75L427.87 80.41L429.32 80.14L430.78 79.97L432.22 79.88L433.64 79.87L435.04 79.95L436.41 80.1Z" id="a19tOSzX1F" fill="white" fill-opacity="1" filter="url(#shadow1741286)"></path></g><use xlink:href="#c35FmibJYo" opacity="1" fill="#292929" fill-opacity="1"></use></g><g><g><filter id="shadow3246572" x="119.41" y="76.13" width="56.34" height="78.43" filterUnits="userSpaceOnUse" primitiveUnits="userSpaceOnUse"><feFlood></feFlood><feComposite in2="SourceAlpha" operator="in"></feComposite><feGaussianBlur stdDeviation="1"></feGaussianBlur><feOffset dx="-1" dy="-1" result="afterOffset"></feOffset><feFlood flood-color="#000000" flood-opacity="0.5"></feFlood><feComposite in2="afterOffset" operator="in"></feComposite><feMorphology operator="dilate" radius="0"></feMorphology><feComposite in2="SourceAlpha" operator="out"></feComposite></filter><path d="M161.37 130.63L161.87 130.73L162.36 130.87L162.83 131.05L163.28 131.26L163.71 131.5L164.12 131.78L164.5 132.09L164.87 132.42L165.2 132.78L165.51 133.17L165.78 133.58L166.03 134.01L166.24 134.46L166.42 134.93L166.56 135.42L166.66 135.92L166.72 136.43L166.75 136.96L166.75 145.56L127.41 145.56L127.41 136.96L127.43 136.43L127.49 135.92L127.59 135.42L127.74 134.93L127.91 134.46L128.12 134.01L128.37 133.58L128.65 133.17L128.95 132.78L129.29 132.42L129.65 132.09L130.04 131.78L130.45 131.5L130.88 131.26L131.33 131.05L131.8 130.87L132.28 130.73L132.79 130.63L133.3 130.56L133.83 130.54L160.33 130.54L160.85 130.56L161.37 130.63ZM165.01 100.88L164.89 101.32L164.73 101.75L164.54 102.16L164.3 102.55L164.03 102.9L163.73 103.24L163.4 103.54L163.04 103.81L162.66 104.04L162.25 104.24L161.82 104.39L161.37 104.51L160.91 104.58L160.43 104.6L158.45 104.6L158.45 130.54L135.7 130.54L135.7 104.6L134.18 104.6L133.7 104.58L133.24 104.51L132.79 104.39L132.36 104.24L131.95 104.04L131.57 103.81L131.21 103.54L130.88 103.24L130.57 102.9L130.31 102.55L130.07 102.16L129.88 101.75L129.72 101.32L129.6 100.88L129.53 100.41L129.51 99.94L129.51 84.13L138.26 84.13L138.26 93.68L142.93 93.68L142.93 84.13L151.68 84.13L151.68 93.68L156.35 93.68L156.35 84.13L165.1 84.13L165.1 99.94L165.08 100.41L165.01 100.88Z" id="a5vyh88gNV" fill="white" fill-opacity="1" filter="url(#shadow3246572)"></path></g><use xlink:href="#b9uFKPnvC" opacity="1" fill="#292929" fill-opacity="1"></use></g><g><g><filter id="shadow16406114" x="475.37" y="-0.34" width="86.82" height="154.9" filterUnits="userSpaceOnUse" primitiveUnits="userSpaceOnUse"><feFlood></feFlood><feComposite in2="SourceAlpha" operator="in"></feComposite><feGaussianBlur stdDeviation="1"></feGaussianBlur><feOffset dx="-1" dy="-1" result="afterOffset"></feOffset><feFlood flood-color="#000000" flood-opacity="0.5"></feFlood><feComposite in2="afterOffset" operator="in"></feComposite><feMorphology operator="dilate" radius="0"></feMorphology><feComposite in2="SourceAlpha" operator="out"></feComposite></filter><path d="M519.35 7.74L519.94 7.83L520.51 7.96L521.08 8.12L521.63 8.31L522.16 8.54L522.68 8.79L523.18 9.08L523.66 9.39L524.12 9.74L524.56 10.1L524.98 10.5L525.37 10.91L525.74 11.35L526.08 11.81L526.39 12.29L526.68 12.79L526.93 13.31L527.16 13.84L527.35 14.39L527.52 14.96L527.64 15.54L527.74 16.13L527.79 16.73L527.81 17.34L527.81 22.15L536.25 22.15L536.72 22.17L537.17 22.22L537.61 22.3L538.05 22.42L538.47 22.56L538.87 22.73L539.26 22.93L539.63 23.15L539.99 23.4L540.33 23.68L540.64 23.97L540.94 24.29L541.21 24.63L541.46 24.98L541.69 25.36L541.89 25.75L542.06 26.15L542.2 26.57L542.31 27L542.4 27.45L542.45 27.9L542.46 28.37L542.45 28.83L542.4 29.28L542.31 29.73L542.2 30.16L542.06 30.58L541.89 30.98L541.69 31.37L541.46 31.75L541.21 32.1L540.94 32.44L540.64 32.76L540.33 33.05L539.99 33.33L539.63 33.58L539.26 33.8L538.87 34L538.47 34.17L538.05 34.31L537.61 34.43L537.17 34.51L536.72 34.56L536.25 34.58L527.81 34.58L527.81 51.81L527.79 52.43L527.75 52.9L538.93 52.9L539.57 52.92L540.21 52.98L540.83 53.07L541.43 53.2L542.02 53.36L542.59 53.55L543.15 53.77L543.69 54.03L544.21 54.31L544.71 54.62L545.19 54.96L545.65 55.32L546.09 55.7L546.51 56.11L546.9 56.54L547.27 56.99L547.61 57.46L547.93 57.95L548.22 58.45L548.48 58.97L548.71 59.5L548.92 60.05L549.09 60.61L549.24 61.18L549.35 61.76L549.43 62.34L549.47 62.94L549.48 63.54L549.46 64.14L549.4 64.75L549.3 65.36L549.17 65.97L549 66.58L548.79 67.19L540.87 88.02L540.74 88.35L540.59 88.68L540.44 88.99L540.27 89.3L540.1 89.61L539.91 89.9L539.72 90.19L539.51 90.47L539.3 90.74L539.08 91L538.85 91.25L538.61 91.5L538.36 91.73L538.1 91.96L537.84 92.18L537.57 92.39L537.29 92.59L537.08 92.73L537.08 112.79L539.53 114.15L540.03 114.44L540.53 114.74L541.01 115.05L541.49 115.37L541.96 115.71L542.42 116.05L542.87 116.41L543.3 116.77L543.73 117.15L544.15 117.53L544.56 117.93L544.96 118.34L545.35 118.75L545.72 119.18L546.09 119.61L546.44 120.05L546.79 120.5L547.12 120.96L547.44 121.43L547.75 121.9L548.05 122.38L548.34 122.87L548.61 123.37L548.87 123.87L549.12 124.38L549.36 124.9L549.58 125.42L549.79 125.95L549.99 126.49L550.18 127.03L550.35 127.57L550.51 128.12L550.65 128.68L550.78 129.24L550.9 129.81L551.01 130.38L551.1 130.95L553.18 145.56L483.37 145.56L483.37 134.17L483.37 133.59L483.4 133.02L483.44 132.45L483.49 131.88L483.56 131.31L483.64 130.75L483.74 130.19L483.85 129.64L483.98 129.09L484.12 128.54L484.27 128L484.44 127.47L484.63 126.93L484.82 126.41L485.03 125.89L485.26 125.37L485.49 124.87L485.75 124.37L486.01 123.87L486.28 123.38L486.57 122.9L486.87 122.43L487.19 121.97L487.52 121.51L487.85 121.06L488.2 120.62L488.57 120.19L488.94 119.77L489.33 119.35L489.72 118.95L490.13 118.56L490.55 118.18L490.98 117.8L491.42 117.44L491.88 117.09L492.34 116.75L492.81 116.42L499.47 111.94L499.47 91.51L499.44 91.48L499.2 91.23L498.97 90.98L498.75 90.71L498.54 90.44L498.34 90.16L498.15 89.87L497.97 89.58L497.79 89.28L497.63 88.97L497.48 88.65L497.34 88.32L497.22 87.99L489.99 68.2L489.77 67.54L489.59 66.88L489.46 66.23L489.36 65.57L489.31 64.92L489.29 64.27L489.31 63.63L489.36 62.99L489.45 62.36L489.58 61.74L489.74 61.13L489.93 60.53L490.16 59.95L490.41 59.38L490.7 58.82L491.01 58.28L491.36 57.76L491.73 57.26L492.12 56.78L492.55 56.32L493 55.89L493.47 55.48L493.96 55.09L494.48 54.73L495.02 54.4L495.58 54.1L496.16 53.83L496.76 53.59L497.37 53.39L498.01 53.21L498.66 53.08L499.32 52.98L500 52.92L500.69 52.9L508.51 52.9L508.47 52.43L508.45 51.81L508.45 34.58L500.01 34.58L499.54 34.56L499.09 34.51L498.64 34.43L498.21 34.31L497.79 34.17L497.39 34L497 33.8L496.62 33.58L496.27 33.33L495.93 33.05L495.61 32.76L495.32 32.44L495.04 32.1L494.79 31.75L494.57 31.37L494.37 30.98L494.2 30.58L494.06 30.16L493.94 29.73L493.86 29.28L493.81 28.83L493.79 28.37L493.81 27.9L493.86 27.45L493.94 27L494.06 26.57L494.2 26.15L494.37 25.75L494.57 25.36L494.79 24.98L495.04 24.63L495.32 24.29L495.61 23.97L495.93 23.68L496.27 23.4L496.62 23.15L497 22.93L497.39 22.73L497.79 22.56L498.21 22.42L498.64 22.3L499.09 22.22L499.54 22.17L500.01 22.15L508.45 22.15L508.45 17.34L508.47 16.73L508.52 16.13L508.61 15.54L508.74 14.96L508.9 14.39L509.1 13.84L509.32 13.31L509.58 12.79L509.87 12.29L510.18 11.81L510.52 11.35L510.89 10.91L511.28 10.5L511.7 10.1L512.14 9.74L512.6 9.39L513.08 9.08L513.58 8.79L514.09 8.54L514.63 8.31L515.18 8.12L515.74 7.96L516.32 7.83L516.91 7.74L517.51 7.68L518.13 7.66L518.13 7.66L518.74 7.68L519.35 7.74Z" id="cjRMMGuK9" fill="white" fill-opacity="1" filter="url(#shadow16406114)"></path></g><use xlink:href="#d17j69u0Pe" opacity="1" fill="#262626" fill-opacity="1"></use></g></g></g></svg>